<svg width="34" height="34" viewBox="0 0 34 34" fill="none" xmlns="http://www.w3.org/2000/svg">
<path d="M10 32C11.1046 32 12 31.1046 12 30C12 28.8954 11.1046 28 10 28C8.89543 28 8 28.8954 8 30C8 31.1046 8.89543 32 10 32Z" fill="#586280"/>
<path d="M21 32C22.1046 32 23 31.1046 23 30C23 28.8954 22.1046 28 21 28C19.8954 28 19 28.8954 19 30C19 31.1046 19.8954 32 21 32Z" fill="#586280"/>
<path d="M5.56684 13H26L22.159 23.7106C22.0562 24.0821 21.839 24.4089 21.5402 24.6415C21.2415 24.8742 20.8775 25 20.5033 25H10.1866C9.81236 25 9.44835 24.8742 9.14961 24.6415C8.85088 24.4089 8.63368 24.0821 8.53088 23.7106L4.6383 9.64469C4.5869 9.45896 4.4783 9.29557 4.32894 9.17925C4.17957 9.06292 3.99756 9 3.81047 9H2" stroke="#586280" stroke-width="2" stroke-linecap="round" stroke-linejoin="round"/>
<rect x="14" width="20" height="20" rx="10" fill="#133EBF"/>
<path d="M23.9399 15.112C23.3332 15.112 22.7826 14.986 22.2879 14.734C21.7932 14.482 21.3919 14.132 21.0839 13.684C20.7852 13.236 20.6126 12.7367 20.5659 12.186H21.9659C22.0312 12.7087 22.2366 13.1147 22.5819 13.404C22.9272 13.684 23.3752 13.824 23.9259 13.824C24.5886 13.824 25.1159 13.642 25.5079 13.278C25.8999 12.9047 26.0959 12.4007 26.0959 11.766C26.0959 11.1313 25.8999 10.6227 25.5079 10.24C25.1159 9.848 24.5932 9.652 23.9399 9.652C23.4546 9.652 23.0439 9.74533 22.7079 9.932C22.3719 10.1093 22.1292 10.3613 21.9799 10.688H20.7619L21.5319 5.2H26.8799V6.488H22.6239L22.2319 9.134C22.4559 8.92867 22.7406 8.76067 23.0859 8.63C23.4406 8.49 23.7999 8.42 24.1639 8.42C24.8266 8.42 25.4146 8.56467 25.9279 8.854C26.4506 9.134 26.8566 9.53067 27.1459 10.044C27.4352 10.548 27.5799 11.122 27.5799 11.766C27.5799 12.4193 27.4259 13.0027 27.1179 13.516C26.8099 14.02 26.3759 14.412 25.8159 14.692C25.2652 14.972 24.6399 15.112 23.9399 15.112Z" fill="white"/>
</svg>
