<svg width="18" height="18" viewBox="0 0 18 18" fill="none" xmlns="http://www.w3.org/2000/svg">
<path d="M9 0C7.21997 0 5.47991 0.527841 3.99987 1.51677C2.51983 2.50571 1.36628 3.91131 0.685088 5.55585C0.00389956 7.20038 -0.17433 9.00998 0.172936 10.7558C0.520203 12.5016 1.37737 14.1053 2.63604 15.364C3.89471 16.6226 5.49836 17.4798 7.24419 17.8271C8.99002 18.1743 10.7996 17.9961 12.4442 17.3149C14.0887 16.6337 15.4943 15.4802 16.4832 14.0001C17.4722 12.5201 18 10.78 18 9C17.9972 6.6139 17.0481 4.32631 15.3609 2.63908C13.6737 0.951855 11.3861 0.00275781 9 0ZM13.2864 7.42405L8.20899 12.2702C8.07989 12.393 7.90852 12.4615 7.73032 12.4615C7.55213 12.4615 7.38075 12.393 7.25166 12.2702L4.71364 9.84713C4.58105 9.72011 4.50429 9.54566 4.50022 9.36209C4.49616 9.17853 4.56512 9.00085 4.69197 8.86809C4.81881 8.73534 4.99317 8.65835 5.17673 8.65406C5.36029 8.64976 5.53806 8.7185 5.67098 8.84517L7.73032 10.8119L12.329 6.4221C12.4619 6.29542 12.6397 6.22668 12.8233 6.23098C13.0068 6.23528 13.1812 6.31226 13.308 6.44502C13.4349 6.57777 13.5038 6.75545 13.4998 6.93902C13.4957 7.12259 13.419 7.29704 13.2864 7.42405Z" fill="#133EBF"/>
</svg>
