<svg width="17" height="13" viewBox="0 0 17 13" fill="none" xmlns="http://www.w3.org/2000/svg">
<path d="M16.5965 2.79814L7.00584 12.1315C6.76199 12.3681 6.43828 12.5 6.10169 12.5C5.76509 12.5 5.44138 12.3681 5.19753 12.1315L0.403452 7.46482C0.15299 7.2202 0.00799764 6.88422 0.000321025 6.53068C-0.00735559 6.17714 0.122911 5.83495 0.36251 5.57927C0.602108 5.32359 0.931446 5.17533 1.27818 5.16705C1.62492 5.15877 1.9607 5.29116 2.21177 5.53513L6.10168 9.3229L14.7882 0.868447C15.0393 0.624477 15.3751 0.49209 15.7218 0.500366C16.0686 0.508642 16.3979 0.656904 16.6375 0.912585C16.8771 1.16827 17.0074 1.51046 16.9997 1.864C16.992 2.21754 16.847 2.55352 16.5965 2.79814Z" fill="#44BD8C"/>
</svg>
