<svg width="146" height="24" viewBox="0 0 146 24" fill="none" xmlns="http://www.w3.org/2000/svg">
<path d="M134.002 0H122V11.9981V24H146V11.9981C146 8.81599 144.736 5.76423 142.486 3.51416C140.236 1.26408 137.184 0 134.002 0Z" fill="#133EBF"/>
<path d="M4.14056 23.4588H0.0376415V9.36924C0.0376415 7.82085 0.0376415 6.91888 0 5.4419H3.7905V7.32101H3.82437C4.54709 6.12589 6.39905 4.88568 8.95114 4.88568C13.3514 4.88568 16.7091 7.76824 16.7091 13.5709V23.4588H12.5948V13.5296C12.5948 10.5719 11.2247 8.59129 8.37147 8.59129C5.51824 8.59129 4.14056 10.5568 4.14056 13.5296V23.4588Z" fill="#133EBF"/>
<path d="M37.9652 18.0883C36.8812 21.4707 33.851 24 29.1232 24C23.8196 24 19.95 20.2155 19.95 14.3789C19.95 8.61384 23.9626 4.88568 29.0517 4.88568C34.1409 4.88568 37.7845 8.56122 37.7845 14.3263V15.4801H24.1433C24.467 18.652 26.4018 20.5612 29.3416 20.5612C31.6866 20.5612 32.9853 19.5164 33.5273 18.0733L37.9652 18.0883ZM24.1433 12.3608H33.5009C33.2487 10.0532 31.7694 8.10648 28.9539 8.10648C26.2738 8.10648 24.5046 10.0908 24.1433 12.3608Z" fill="#133EBF"/>
<path d="M50.1987 24C45.1848 24 40.8523 20.6815 40.8523 14.4504C40.8523 8.21922 45.3279 4.88568 50.3455 4.88568C54.9264 4.88568 58.2125 7.65925 58.9691 11.2747H54.6027C54.0983 9.79768 52.6905 8.61008 50.3455 8.61008C47.2062 8.61008 45.0042 10.9139 45.0042 14.4466C45.0042 17.9793 47.2062 20.3207 50.3078 20.3207C52.7621 20.3207 54.279 19.0204 54.7458 17.5434H59.0971C58.3443 21.1513 54.7458 24 50.1987 24Z" fill="#133EBF"/>
<path d="M71.4548 23.6016C67.2352 23.6016 64.5288 21.4407 64.5288 16.5024V9.04604H60.9189V5.4419H64.5288V0H66.4108C67.0032 -8.38085e-07 67.5713 0.23468 67.9905 0.652521C68.4097 1.07036 68.6457 1.63721 68.6467 2.22863V5.4419H73.6606V9.04604H68.643V16.2881C68.643 19.1707 70.3745 19.8923 72.249 19.8923C72.7945 19.8945 73.3389 19.8454 73.8751 19.7457V23.3498C73.08 23.5216 72.2684 23.606 71.4548 23.6016V23.6016Z" fill="#133EBF"/>
<path d="M76.8338 14.4842C76.8338 8.84683 80.406 4.9007 85.9656 4.9007C88.13 4.9007 91.0548 6.16346 91.8114 7.92606H91.8452V5.44188H95.8164C95.7825 6.91886 95.7825 7.82083 95.7825 9.36922V23.4588H91.8114V20.9709H91.7737C91.0209 22.7372 88.1677 24 85.9656 24C80.406 24 76.8338 20.144 76.8338 14.4842ZM91.7737 14.4842C91.7737 10.8086 89.391 8.68523 86.3985 8.68523C83.3307 8.68523 81.0195 10.8086 81.0195 14.4842C81.0195 18.1597 83.3307 20.2155 86.3985 20.2155C89.248 20.2155 91.7737 18.1597 91.7737 14.4842Z" fill="#133EBF"/>
<path d="M110.542 9.04604C107.113 9.04604 105.02 10.989 105.02 14.6834V23.4776H100.906V9.36925C100.906 7.82086 100.906 6.91889 100.868 5.44191H104.839V8.39587H104.911C105.596 6.3777 107.617 4.90072 110.18 4.90072C110.567 4.89604 110.953 4.91991 111.336 4.97213V9.04604H110.542Z" fill="#133EBF"/>
</svg>
