<svg width="25" height="24" viewBox="0 0 25 24" fill="none" xmlns="http://www.w3.org/2000/svg">
<g clip-path="url(#clip0_0_1130)">
<path d="M17.2136 9.6504C17.2136 7.3704 15.6897 6 13.1865 6H8.66003V18H10.4265V13.32H12.5336L15.0032 18H16.9904L14.4032 13.2V13.1832C16.1696 12.7896 17.2136 11.5032 17.2136 9.6504ZM13.0136 11.6904H10.4265V7.6464H13.0136C14.6264 7.6464 15.4496 8.3136 15.4496 9.6504C15.4496 10.9872 14.6096 11.6904 13.0136 11.6904Z" fill="#8B93A8"/>
<path d="M12.5 0C9.3174 0 6.26518 1.26428 4.01475 3.51472C1.76431 5.76515 0.5 8.8174 0.5 12C0.5 15.1826 1.76431 18.2348 4.01475 20.4853C6.26518 22.7357 9.3174 24 12.5 24C15.6826 24 18.7348 22.7357 20.9853 20.4853C23.2357 18.2348 24.5 15.1826 24.5 12C24.5 8.8174 23.2357 5.76515 20.9853 3.51472C18.7348 1.26428 15.6826 0 12.5 0ZM12.5 22.56C9.70029 22.5568 7.01614 21.4432 5.03645 19.4635C3.05675 17.4838 1.94318 14.7997 1.94 12C1.94318 9.20029 3.05675 6.51616 5.03645 4.53646C7.01614 2.55676 9.70029 1.44318 12.5 1.44C15.2997 1.44318 17.9839 2.55676 19.9636 4.53646C21.9433 6.51616 23.0568 9.20029 23.06 12C23.0568 14.7997 21.9433 17.4838 19.9636 19.4635C17.9839 21.4432 15.2997 22.5568 12.5 22.56Z" fill="#8B93A8"/>
</g>
<defs>
<clipPath id="clip0_0_1130">
<rect width="24" height="24" fill="white" transform="translate(0.5)"/>
</clipPath>
</defs>
</svg>
